<?xml version="1.0" encoding="utf-8"?>
<!-- Generator: Adobe Illustrator 24.2.0, SVG Export Plug-In . SVG Version: 6.00 Build 0)  -->
<svg version="1.1" id="Layer_1" xmlns="http://www.w3.org/2000/svg" xmlns:xlink="http://www.w3.org/1999/xlink" x="0px" y="0px"
	 viewBox="0 0 55 55" style="enable-background:new 0 0 55 55;" xml:space="preserve">
<style type="text/css">
	.st0{fill-rule:evenodd;clip-rule:evenodd;}
	.st1{fill:#FFFFFF;}
</style>
<path id="Oval" class="st0" d="M27.5,55c14.4,0,26.1-11.7,26.1-26.1c0-14.4-11.7-26.1-26.1-26.1C13.1,2.8,1.4,14.5,1.4,28.9
	C1.4,43.3,13.1,55,27.5,55z"/>
<path class="st1" d="M31,26.6c2.1-0.8,3.3-2.5,3.3-4.6c0-3.4-3.2-5.7-8.2-5.7h-6.7c-0.6,0-0.9,0.3-0.9,0.7c0,0.4,0.3,0.6,0.5,0.8
	c0.3,0.2,0.6,0.4,0.6,0.9v17.4c0,0.5-0.3,0.7-0.6,0.9c-0.2,0.2-0.5,0.4-0.5,0.7V38c0,0.3,0.2,0.6,0.9,0.6h8.4c5.2,0,8.6-2.4,8.6-6.2
	C36.4,29.4,34.5,27.4,31,26.6z M23,27.7h3.4c4.1,0,6.8,2,6.8,5.1c0,3.5-3.4,4-5.5,4H24c-0.6,0-1-0.5-1-1.2V27.7z M27.1,26h-3.2
	c-0.6,0-0.9-0.4-0.9-0.9l0-6.1c0-0.7,0.3-0.8,0.7-0.8l2.4,0c3.2,0,5.3,1.7,5.3,4.4C31.3,24.6,29.6,26,27.1,26z"/>
</svg>
